<svg width="30" height="30" viewBox="0 0 30 30" fill="none" xmlns="http://www.w3.org/2000/svg">
<path d="M20.2531 14.1092C20.251 14.1092 20.249 14.1092 20.2469 14.1092H17.7346V11.5907C17.738 11.0828 17.3289 10.6682 16.821 10.6648C16.8189 10.6648 16.8168 10.6648 16.8148 10.6648H13.1852C12.6772 10.6648 12.2654 11.0766 12.2654 11.5845V14.1031H9.75308C9.24513 14.0997 8.83054 14.5086 8.82715 15.0166C8.82715 15.0207 8.82715 15.0248 8.82715 15.029V18.6524C8.82715 19.1604 9.23895 19.5722 9.7469 19.5722H12.2654V22.0845C12.262 22.5925 12.6711 23.0071 13.179 23.0105C13.1811 23.0105 13.1832 23.0105 13.1852 23.0105H16.8086C17.3166 23.0105 17.7284 22.5987 17.7284 22.0907V19.5722H20.2469C20.7549 19.5756 21.1694 19.1666 21.1728 18.6586C21.1728 18.6565 21.1728 18.6545 21.1728 18.6524V15.029C21.1728 14.521 20.7611 14.1092 20.2531 14.1092ZM19.9383 18.3376H17.1173C16.7764 18.3376 16.5 18.614 16.5 18.9549V21.7759H13.5V18.9549C13.5 18.614 13.2236 18.3376 12.8827 18.3376H10.0617V15.3438H12.8827C13.2236 15.3438 13.5 15.0674 13.5 14.7265V11.8994H16.4938V14.7204C16.4938 15.0612 16.7702 15.3376 17.1111 15.3376H19.9383V18.3376Z" fill="#FFE7CB"/>
<path d="M25.7407 6.04755H20.6543V3.87472C20.6863 2.8832 19.9085 2.05342 18.917 2.0214C18.8664 2.01978 18.8159 2.02024 18.7654 2.02286H11.2346C10.2438 1.97124 9.39884 2.73251 9.34715 3.72317C9.34452 3.77363 9.34398 3.82417 9.34568 3.87472V6.03521H4.25926C2.2963 6.03521 0 7.15249 0 10.2945V23.7204C0 26.8624 2.2963 27.9797 4.25926 27.9797H25.7407C27.7037 27.9797 30 26.8624 30 23.7204V10.3068C30 7.16484 27.7099 6.04755 25.7407 6.04755ZM10.5802 3.87472C10.5802 3.6957 10.5802 3.21422 11.2407 3.21422H18.7654C19.4259 3.21422 19.4259 3.68953 19.4259 3.87472V6.03521H10.5802V3.87472ZM28.7654 23.7204C28.7654 26.4488 26.6543 26.7451 25.7407 26.7451H4.25926C3.35185 26.7451 1.23457 26.4488 1.23457 23.7204V10.3068C1.23457 7.57842 3.34568 7.28212 4.25926 7.28212H25.7407C26.6481 7.28212 28.7654 7.57842 28.7654 10.3068V23.7204Z" fill="#FFE7CB"/>
</svg>
