<svg width="30" height="32" viewBox="0 0 30 32" fill="none" xmlns="http://www.w3.org/2000/svg">
<g clip-path="url(#clip0_15:128)">
<path d="M16.875 5.43276C16.53 5.43276 16.25 5.14162 16.25 4.78291V2.59941C16.25 1.88327 15.6888 1.2997 15 1.2997C14.3113 1.2997 13.75 1.88327 13.75 2.59941V4.78291C13.75 5.14162 13.47 5.43276 13.125 5.43276C12.78 5.43276 12.5 5.14292 12.5 4.78291V2.59941C12.5 1.16583 13.6213 0 15 0C16.3788 0 17.5 1.16583 17.5 2.59941V4.78291C17.5 5.14292 17.22 5.43276 16.875 5.43276Z" fill="white"/>
<path d="M15 31.1929C12.5875 31.1929 10.625 29.1524 10.625 26.6439C10.625 26.2852 10.905 25.9941 11.25 25.9941C11.595 25.9941 11.875 26.2852 11.875 26.6439C11.875 28.4349 13.2775 29.8932 15 29.8932C16.7225 29.8932 18.125 28.4349 18.125 26.6439C18.125 26.2852 18.405 25.9941 18.75 25.9941C19.095 25.9941 19.375 26.2852 19.375 26.6439C19.375 29.1524 17.4125 31.1929 15 31.1929Z" fill="white"/>
<path d="M25.625 27.2946H4.375C3.34125 27.2946 2.5 26.4199 2.5 25.345C2.5 24.7744 2.73875 24.2351 3.15625 23.8633C5.12625 22.1321 6.25 19.6133 6.25 16.9463V12.9978C6.25 7.98097 10.175 3.8999 15 3.8999C19.825 3.8999 23.75 7.98097 23.75 12.9978V16.9463C23.75 19.6146 24.8738 22.1321 26.8337 23.8542C27.2612 24.2351 27.5 24.7744 27.5 25.345C27.5 26.4199 26.66 27.2946 25.625 27.2946ZM15 5.19961C10.8638 5.19961 7.5 8.69711 7.5 12.9978V16.9463C7.5 19.998 6.215 22.8769 3.97375 24.8472C3.83 24.9746 3.75 25.1552 3.75 25.345C3.75 25.7037 4.03 25.9949 4.375 25.9949H25.625C25.97 25.9949 26.25 25.7037 26.25 25.345C26.25 25.1552 26.17 24.9746 26.0313 24.8511C23.7863 22.8769 22.5 19.9967 22.5 16.9463V12.9978C22.5 8.69711 19.1363 5.19961 15 5.19961Z" fill="white"/>
</g>
<defs>
<clipPath id="clip0_15:128">
<rect width="30" height="31.1929" fill="white"/>
</clipPath>
</defs>
</svg>
