<svg width="30" height="30" viewBox="0 0 30 30" fill="none" xmlns="http://www.w3.org/2000/svg">
<g clip-path="url(#clip0_55:91)">
<path d="M29.0019 6.87256C28.403 6.24518 27.576 5.87446 26.635 5.87446H21.9011V5.81742C21.9011 5.10449 21.616 4.42008 21.1312 3.96381C20.6464 3.47902 19.9905 3.19385 19.2776 3.19385H10.7224C9.98099 3.19385 9.3251 3.47902 8.8403 3.96381C8.35551 4.4486 8.07034 5.10449 8.07034 5.81742V5.87446H3.36502C2.42395 5.87446 1.59696 6.24518 0.998099 6.87256C0.39924 7.47141 0 8.32693 0 9.23948V23.441C0 24.3821 0.370722 25.2091 0.998099 25.8079C1.59696 26.4068 2.45247 26.806 3.36502 26.806H26.635C27.576 26.806 28.403 26.4353 29.0019 25.8079C29.6008 25.2091 30 24.3535 30 23.441V9.23948C30 8.29841 29.6293 7.47141 29.0019 6.87256ZM28.5171 23.441H28.4886C28.4886 23.9543 28.289 24.4106 27.9468 24.7528C27.6046 25.095 27.1483 25.2946 26.635 25.2946H3.36502C2.85171 25.2946 2.39544 25.095 2.05323 24.7528C1.71103 24.4106 1.51141 23.9543 1.51141 23.441V9.23948C1.51141 8.72617 1.71103 8.26989 2.05323 7.92769C2.39544 7.58548 2.85171 7.38586 3.36502 7.38586H8.86882C9.29658 7.38586 9.63878 7.04366 9.63878 6.6159V5.7889C9.63878 5.47522 9.75285 5.19005 9.95247 4.99043C10.1521 4.79081 10.4373 4.67674 10.751 4.67674H19.2776C19.5913 4.67674 19.8764 4.79081 20.076 4.99043C20.2757 5.19005 20.3897 5.47522 20.3897 5.7889V6.6159C20.3897 7.04366 20.7319 7.38586 21.1597 7.38586H26.6635C27.1768 7.38586 27.6331 7.58548 27.9753 7.92769C28.3175 8.26989 28.5171 8.72617 28.5171 9.23948V23.441Z" fill="#FFE7CB"/>
<path d="M15 9.32507C13.0608 9.32507 11.2928 10.1236 10.038 11.3783C8.75475 12.6616 7.98479 14.4011 7.98479 16.3403C7.98479 18.2795 8.78327 20.0475 10.038 21.3023C11.3213 22.5855 13.0608 23.3555 15 23.3555C16.9392 23.3555 18.7072 22.557 19.962 21.3023C21.2453 20.019 22.0152 18.2795 22.0152 16.3403C22.0152 14.4011 21.2167 12.6331 19.962 11.3783C18.7072 10.1236 16.9392 9.32507 15 9.32507ZM18.8783 20.2471C17.8802 21.2167 16.5114 21.8441 15 21.8441C13.4886 21.8441 12.1198 21.2167 11.1217 20.2471C10.1236 19.249 9.52471 17.8802 9.52471 16.3688C9.52471 14.8574 10.1521 13.4886 11.1217 12.4905C12.1198 11.4924 13.4886 10.8935 15 10.8935C16.5114 10.8935 17.8802 11.5209 18.8783 12.4905C19.8764 13.4886 20.4753 14.8574 20.4753 16.3688C20.5038 17.8802 19.8764 19.249 18.8783 20.2471Z" fill="#FFE7CB"/>
<path d="M25.1521 12.0911C25.9238 12.0911 26.5494 11.4655 26.5494 10.6937C26.5494 9.922 25.9238 9.29639 25.1521 9.29639C24.3804 9.29639 23.7548 9.922 23.7548 10.6937C23.7548 11.4655 24.3804 12.0911 25.1521 12.0911Z" fill="#FFE7CB"/>
</g>
<defs>
<clipPath id="clip0_55:91">
<rect width="30" height="30" fill="white"/>
</clipPath>
</defs>
</svg>
