<svg width="30" height="30" viewBox="0 0 30 30" fill="none" xmlns="http://www.w3.org/2000/svg">
<g clip-path="url(#clip0_55:98)">
<path d="M23.785 3.93055H21.0709V2.71638C21.0709 2.32355 20.6424 2.14501 20.2496 2.14501H18.1427C17.6427 0.716544 16.3928 0.00231226 14.9643 0.00231226C13.5516 -0.0507989 12.2666 0.815453 11.786 2.14501H9.71473C9.3219 2.14501 8.92907 2.32355 8.92907 2.71638V3.93055H6.21494C4.60656 3.94771 3.29075 5.2165 3.21515 6.82316V27.2859C3.21515 28.8572 4.64361 29.9999 6.21494 29.9999H23.785C25.3563 29.9999 26.7848 28.8572 26.7848 27.2859V6.82323C26.7092 5.2165 25.3934 3.94771 23.785 3.93055ZM10.3575 3.57347H12.3216C12.6645 3.53164 12.9399 3.2708 13.0002 2.93067C13.2117 2.00967 14.0197 1.34855 14.9643 1.32367C15.9002 1.35203 16.6961 2.0152 16.8927 2.93067C16.9568 3.28256 17.2504 3.54675 17.607 3.57347H19.6425V6.4304H10.3575V3.57347ZM25.3563 27.2859C25.3563 28.0716 24.5707 28.5715 23.785 28.5715H6.21494C5.42927 28.5715 4.64361 28.0716 4.64361 27.2859V6.82323C4.71648 6.00544 5.394 5.37406 6.21494 5.35909H8.929V7.18038C8.96673 7.58053 9.31329 7.87985 9.71466 7.85893H20.2495C20.6583 7.88128 21.0157 7.58606 21.0709 7.18038V5.35902H23.7849C24.6058 5.37406 25.2834 6.00537 25.3563 6.82316V27.2859H25.3563Z" fill="#FFE7CB"/>
<path d="M12.2502 15.9653C11.9824 15.683 11.5376 15.667 11.2503 15.9297L8.96472 18.108L8.00052 17.1081C7.73264 16.8257 7.28792 16.8099 7.00056 17.0724C6.72393 17.3622 6.72393 17.8182 7.00056 18.108L8.46471 19.6079C8.59144 19.7498 8.77449 19.8283 8.96465 19.8222C9.15304 19.8196 9.33274 19.7425 9.4646 19.6079L12.2501 16.9653C12.5262 16.712 12.5447 16.2827 12.2913 16.0066C12.2783 15.9922 12.2646 15.9785 12.2502 15.9653Z" fill="#FFE7CB"/>
<path d="M22.4994 17.5009H14.2858C13.8913 17.5009 13.5715 17.8206 13.5715 18.2151C13.5715 18.6096 13.8913 18.9293 14.2858 18.9293H22.4994C22.8939 18.9293 23.2136 18.6096 23.2136 18.2151C23.2136 17.8206 22.8939 17.5009 22.4994 17.5009Z" fill="#FFE7CB"/>
<path d="M12.2502 10.2516C11.9824 9.96923 11.5376 9.9533 11.2503 10.2159L8.96472 12.3943L8.00052 11.3943C7.73264 11.112 7.28792 11.096 7.00056 11.3587C6.72393 11.6485 6.72393 12.1045 7.00056 12.3943L8.46471 13.8942C8.59144 14.0361 8.77449 14.1146 8.96465 14.1085C9.15304 14.1058 9.33274 14.0288 9.4646 13.8942L12.2501 11.2515C12.5262 10.9982 12.5447 10.569 12.2913 10.2929C12.2783 10.2785 12.2646 10.2647 12.2502 10.2516Z" fill="#FFE7CB"/>
<path d="M22.4994 11.7871H14.2858C13.8913 11.7871 13.5715 12.1069 13.5715 12.5013C13.5715 12.8958 13.8913 13.2156 14.2858 13.2156H22.4994C22.8939 13.2156 23.2136 12.8958 23.2136 12.5013C23.2136 12.1069 22.8939 11.7871 22.4994 11.7871Z" fill="#FFE7CB"/>
<path d="M12.2502 21.6792C11.9824 21.3968 11.5376 21.381 11.2503 21.6435L8.96472 23.8219L8.00052 22.8219C7.73264 22.5396 7.28792 22.5237 7.00056 22.7862C6.72393 23.0761 6.72393 23.5321 7.00056 23.8219L8.46471 25.3218C8.59144 25.4637 8.77449 25.5422 8.96465 25.5361C9.15304 25.5334 9.33274 25.4564 9.4646 25.3218L12.2501 22.6791C12.5262 22.4258 12.5447 21.9966 12.2913 21.7205C12.2783 21.7061 12.2646 21.6924 12.2502 21.6792Z" fill="#FFE7CB"/>
<path d="M22.4994 23.2148H14.2858C13.8913 23.2148 13.5715 23.5346 13.5715 23.9291C13.5715 24.3235 13.8913 24.6433 14.2858 24.6433H22.4994C22.8939 24.6433 23.2136 24.3235 23.2136 23.9291C23.2136 23.5346 22.8939 23.2148 22.4994 23.2148Z" fill="#FFE7CB"/>
</g>
<defs>
<clipPath id="clip0_55:98">
<rect width="30" height="30" fill="white"/>
</clipPath>
</defs>
</svg>
