<svg width="544" height="130" viewBox="0 0 544 130" fill="none" xmlns="http://www.w3.org/2000/svg">
<g clip-path="url(#clip0_1:3)">
<path fill-rule="evenodd" clip-rule="evenodd" d="M471.455 106.284L476.9 97.5006H482.345L474.265 111.028L471.455 106.284ZM469.523 108.744L471.982 113.311L465.483 122.974H460.037L469.523 108.744ZM469.523 111.203L460.213 97.5006H465.834L473.036 108.744L482.521 122.622H477.076L469.523 111.203ZM428.244 97.5006H433.162V122.974H428.244V97.5006ZM430.703 117.879H439.135C439.928 118.175 440.801 118.175 441.594 117.879C441.78 117.496 441.877 117.075 441.877 116.649C441.877 116.223 441.78 115.803 441.594 115.42C441.693 114.779 441.693 114.127 441.594 113.487C441.278 112.993 440.858 112.573 440.364 112.257H438.608H431.055V106.284H439.135C440.722 106.24 442.294 106.603 443.702 107.338C445.019 107.928 446.123 108.91 446.863 110.149C447.584 111.499 447.947 113.011 447.917 114.541C447.94 116.015 447.577 117.468 446.863 118.757C446.133 120.048 445.032 121.089 443.702 121.744C442.278 122.459 440.724 122.877 439.135 122.974H431.757L430.703 117.879ZM450.552 97.5006H455.47V122.974H450.552V97.5006ZM402.599 108.041H418.232V112.433H402.599V108.041ZM399.613 97.5006H404.004V122.974H399.086L399.613 97.5006ZM415.597 97.5006H421.569V122.974H416.651L415.597 97.5006ZM373.967 108.041H389.425V112.433H374.143L373.967 108.041ZM370.981 97.5006H375.899V122.974H370.981V97.5006ZM386.965 97.5006H391.884V122.974H386.438L386.965 97.5006ZM352.713 122.974C350.221 123.128 347.749 122.448 345.687 121.041C344.906 120.3 344.298 119.397 343.903 118.395C343.509 117.394 343.338 116.318 343.403 115.244C343.33 114.21 343.48 113.173 343.844 112.203C344.207 111.233 344.776 110.353 345.511 109.622C347.189 108.379 349.219 107.702 351.308 107.69H358.51V111.73H351.308C350.404 111.378 349.401 111.378 348.497 111.73C347.779 112.454 347.375 113.433 347.375 114.453C347.375 115.474 347.779 116.452 348.497 117.176C349.763 117.52 351.096 117.52 352.362 117.176C353.756 117.419 355.183 117.419 356.577 117.176C357.631 117.176 357.983 116.122 357.983 115.244V118.757C357.606 119.463 357.064 120.066 356.402 120.514L355.523 122.974C354.597 123.168 353.64 123.168 352.713 122.974V122.974ZM358.861 106.636C358.931 105.954 358.84 105.265 358.596 104.624C358.352 103.984 357.961 103.409 357.456 102.947C357.002 102.42 356.433 102.003 355.794 101.729C355.155 101.455 354.461 101.331 353.767 101.366L351.308 101.893C350.33 102.144 349.426 102.626 348.673 103.298L345.16 100.663C346.172 99.5139 347.434 98.6124 348.849 98.0277C350.594 97.7455 352.373 97.7455 354.118 98.0277C355.929 98.0028 357.725 98.3621 359.388 99.0817C360.816 99.7428 361.988 100.853 362.725 102.244C363.605 103.793 364.031 105.558 363.955 107.338V122.974H359.212L358.861 106.636ZM316.177 87.8385H332.161V92.5817H316.177V87.8385ZM329.527 87.8385H333.742V122.974H328.824L329.527 87.8385ZM333.742 117.879H338.661V130.001H333.742V117.879ZM305.813 117.879H310.732V130.001H305.813V117.879H336.377V122.974H305.989L305.813 117.879ZM305.813 117.879C306.778 117.942 307.741 117.748 308.606 117.316C309.47 116.884 310.204 116.229 310.732 115.42C311.914 113.338 312.464 110.957 312.313 108.568V87.8385H317.231V108.92C317.315 111.208 316.895 113.487 316.001 115.595C315.167 117.303 313.894 118.758 312.313 119.811C310.47 120.77 308.417 121.253 306.34 121.217V121.217L305.813 117.879ZM532.407 63.7709L537.852 54.8115H544.527L535.569 68.3385L532.407 63.7709ZM530.65 66.0547L532.934 70.6223L526.962 79.9331H521.516L530.65 66.0547ZM530.65 68.5142L521.341 54.8115H526.962L534.163 66.0547L543.649 79.9331H538.203L530.65 68.5142ZM489.372 54.8115H494.29V79.9331H489.372V54.8115ZM491.831 75.3655H499.56C500.022 75.3803 500.481 75.2936 500.906 75.1114C501.331 74.9293 501.711 74.6563 502.019 74.3115C502.588 73.6184 502.898 72.7489 502.897 71.852C503.053 71.2173 503.053 70.5542 502.897 69.9196C502.652 69.4293 502.29 69.007 501.843 68.6898H500.087H491.831V63.5952H499.384C500.971 63.5513 502.543 63.9142 503.951 64.6493C505.2 65.3411 506.279 66.3011 507.113 67.4601C507.833 68.81 508.196 70.322 508.167 71.852C508.19 73.3254 507.826 74.779 507.113 76.0682C506.383 77.3588 505.281 78.3996 503.951 79.0547C502.452 79.4339 500.883 79.4339 499.384 79.0547H491.831V75.3655ZM511.855 54.8115H516.774V79.9331H511.855V54.8115ZM462.672 54.8115H467.591V79.9331H462.672V54.8115ZM465.483 75.5412H474.265C474.618 75.7259 475.009 75.8223 475.407 75.8223C475.805 75.8223 476.197 75.7259 476.549 75.5412C476.851 74.81 476.851 73.9886 476.549 73.2574V73.2574C476.851 72.5262 476.851 71.7048 476.549 70.9736C476.197 70.7889 475.805 70.6925 475.407 70.6925C475.009 70.6925 474.618 70.7889 474.265 70.9736H464.956V64.4736H474.265C474.889 64.702 475.574 64.702 476.198 64.4736C476.328 64.1682 476.395 63.8395 476.395 63.5074C476.395 63.1753 476.328 62.8466 476.198 62.5412C476.471 61.8651 476.471 61.1092 476.198 60.4331C475.629 60.2321 475.009 60.2321 474.441 60.4331H464.956V54.8115H474.441C476.439 54.6959 478.417 55.2525 480.062 56.3925C480.716 56.9904 481.228 57.7261 481.562 58.5465C481.896 59.3669 482.044 60.2513 481.994 61.1358C481.994 61.8257 481.854 62.5085 481.582 63.1426C481.311 63.7768 480.913 64.3491 480.413 64.825C479.908 65.4068 479.289 65.8785 478.594 66.211C477.899 66.5434 477.143 66.7294 476.373 66.7574C478.066 66.9607 479.626 67.7724 480.765 69.0412C481.817 70.2589 482.38 71.8238 482.345 73.4331V73.4331C482.387 74.3588 482.22 75.2821 481.855 76.1339C481.49 76.9857 480.937 77.744 480.238 78.352C478.539 79.5177 476.496 80.0749 474.441 79.9331H464.956L465.483 75.5412ZM445.107 75.5412C445.855 75.5913 446.605 75.4756 447.304 75.2023C448.002 74.929 448.631 74.5048 449.147 73.9601C450.084 72.9496 450.642 71.6462 450.728 70.2709V65.1763C450.796 64.3877 450.707 63.5932 450.466 62.8393C450.225 62.0853 449.836 61.3868 449.323 60.7844C448.833 60.2065 448.207 59.7595 447.502 59.4835C446.797 59.2075 446.034 59.1112 445.283 59.2033C444.557 59.1086 443.818 59.2046 443.141 59.4818C442.463 59.759 441.87 60.208 441.418 60.7844C440.334 61.9837 439.767 63.5614 439.837 65.1763V70.2709C439.768 71.1004 439.873 71.9352 440.145 72.7218C440.417 73.5083 440.851 74.2293 441.418 74.8385C441.975 75.2249 442.608 75.4875 443.274 75.6087C443.941 75.7299 444.626 75.7069 445.283 75.5412H445.107ZM445.107 80.2844C443.038 80.4828 440.957 80.0543 439.135 79.0547C437.579 78.2017 436.299 76.9217 435.446 75.3655C434.991 73.7078 434.813 71.9865 434.919 70.2709V65.1763C434.933 63.1806 435.351 61.2084 436.149 59.379C436.809 57.9119 437.837 56.6409 439.135 55.6898C440.803 54.7895 442.687 54.3642 444.58 54.4601C446.529 54.3672 448.468 54.7914 450.201 55.6898C451.757 56.5429 453.037 57.8228 453.89 59.379C454.687 61.2084 455.105 63.1806 455.119 65.1763V70.2709C455.119 72.3248 454.701 74.3572 453.89 76.2439C453.037 77.8001 451.757 79.0801 450.201 79.9331C448.609 80.4186 446.928 80.5387 445.283 80.2844H445.107ZM419.813 80.2844C418.34 80.3075 416.886 79.9441 415.597 79.2304C414.456 78.4707 413.593 77.3609 413.138 76.0682V70.7979C412.856 71.6538 412.856 72.5773 413.138 73.4331C413.468 74.2699 414.093 74.9571 414.894 75.3655C415.759 75.5812 416.664 75.5812 417.529 75.3655C418.238 75.5237 418.974 75.5106 419.677 75.3272C420.379 75.1439 421.028 74.7957 421.569 74.3115C422.183 73.8225 422.688 73.2103 423.051 72.5144C423.414 71.8185 423.627 71.0543 423.677 70.2709V64.6493C423.544 63.0247 422.789 61.5143 421.569 60.4331C421.115 59.906 420.547 59.4896 419.908 59.2156C419.269 58.9416 418.575 58.8172 417.881 58.852C417.029 58.5433 416.097 58.5433 415.246 58.852C414.478 59.1321 413.848 59.6988 413.489 60.4331C413.226 61.3515 413.226 62.3255 413.489 63.2439V58.325C414.142 56.9477 415.179 55.7886 416.475 54.9871C417.659 54.162 419.073 53.7316 420.515 53.7574C422.129 53.6799 423.726 54.11 425.082 54.9871C426.418 55.7741 427.418 57.0245 427.893 58.5006C428.648 60.2138 429.009 62.0752 428.947 63.9466V70.2709C428.986 72.1405 428.627 73.9969 427.893 75.7169C427.305 77.0818 426.327 78.2428 425.082 79.0547C423.549 79.9735 421.772 80.4025 419.988 80.2844H419.813ZM408.395 54.8115H413.489V89.9466H408.395V54.8115ZM393.113 75.3655C393.611 75.37 394.101 75.2422 394.533 74.9953C394.965 74.7483 395.324 74.3911 395.572 73.9601C395.9 72.8715 395.9 71.7108 395.572 70.6223V64.1223C395.9 63.0337 395.9 61.873 395.572 60.7844C395.316 60.3729 394.95 60.0403 394.516 59.8233C394.082 59.6063 393.597 59.5134 393.113 59.5547C392.581 59.52 392.047 59.6135 391.558 59.8275C391.069 60.0414 390.639 60.3696 390.303 60.7844C389.539 61.722 389.162 62.916 389.249 64.1223V70.2709C389.162 71.4772 389.539 72.6712 390.303 73.6087C390.592 74.1469 391.024 74.5952 391.55 74.905C392.077 75.2148 392.678 75.3741 393.289 75.3655H393.113ZM384.331 47.4331H389.249V87.8385H384.331V47.4331ZM380.466 75.3655C381.014 75.38 381.557 75.2594 382.047 75.0143C382.537 74.7692 382.96 74.4071 383.277 73.9601C383.731 73.467 384.075 72.8832 384.287 72.2473C384.499 71.6114 384.574 70.9378 384.506 70.2709V64.1223C384.593 62.916 384.216 61.722 383.452 60.7844C383.116 60.3696 382.686 60.0414 382.197 59.8275C381.708 59.6135 381.175 59.52 380.642 59.5547C380.159 59.5134 379.673 59.6063 379.239 59.8233C378.805 60.0403 378.44 60.3729 378.183 60.7844C377.481 61.7473 377.168 62.9388 377.304 64.1223V70.2709C377.168 71.4544 377.481 72.6459 378.183 73.6087C378.383 74.1054 378.72 74.5346 379.156 74.8458C379.592 75.1571 380.107 75.3373 380.642 75.3655H380.466ZM379.412 79.9331C378.38 79.9485 377.356 79.7362 376.415 79.3111C375.474 78.886 374.638 78.2586 373.967 77.4736C372.632 75.324 372.074 72.782 372.386 70.2709V64.1223C372.207 61.7078 372.824 59.3011 374.143 57.2709C374.787 56.4553 375.619 55.8062 376.566 55.3783C377.513 54.9503 378.55 54.7559 379.588 54.8115C380.529 54.7421 381.47 54.9352 382.308 55.3695C383.145 55.8037 383.845 56.462 384.331 57.2709C385.65 59.3011 386.267 61.7078 386.087 64.1223V70.2709C386.267 72.7408 385.651 75.2033 384.331 77.2979C383.839 78.1135 383.143 78.7859 382.311 79.2483C381.479 79.7107 380.54 79.9468 379.588 79.9331H379.412ZM394.167 79.9331C393.232 79.9652 392.304 79.7558 391.474 79.325C390.643 78.8942 389.937 78.2566 389.425 77.4736C388.104 75.379 387.488 72.9164 387.668 70.4466V64.1223C387.489 61.7078 388.106 59.3011 389.425 57.2709C389.91 56.462 390.61 55.8037 391.448 55.3695C392.285 54.9352 393.227 54.7421 394.167 54.8115C395.182 54.7384 396.199 54.926 397.122 55.3564C398.044 55.7868 398.841 56.4459 399.437 57.2709C400.83 59.2738 401.51 61.6865 401.369 64.1223V70.2709C401.51 72.7067 400.83 75.1194 399.437 77.1223C398.875 77.9644 398.119 78.6592 397.232 79.1483C396.346 79.6375 395.355 79.9066 394.343 79.9331H394.167ZM360.266 79.9331V62.3655L348.146 79.9331H343.755V54.8115H348.673V72.379L360.793 54.8115H365.009V79.9331H360.266ZM308.799 44.7979H313.718V79.9331H308.799V44.7979ZM333.742 75.3655H338.661V87.8385H333.742V75.3655ZM311.961 75.3655H335.499V79.9331H311.961V75.3655ZM329.527 44.6223H333.742V79.7574H328.824L329.527 44.6223ZM491.831 14.5817C491.718 12.6093 492.017 10.6349 492.709 8.78443C493.575 7.32612 494.861 6.16287 496.398 5.44659C498.302 4.69161 500.323 4.27543 502.37 4.21686H504.654C504.935 4.173 505.205 4.07255 505.446 3.92158C505.688 3.77061 505.896 3.57225 506.059 3.33849C506.141 3.1439 506.183 2.93483 506.183 2.72362C506.183 2.51241 506.141 2.30334 506.059 2.10876H510.626C510.651 3.39317 510.349 4.66291 509.748 5.79795C509.051 6.77449 508.069 7.51102 506.937 7.90605C505.429 8.19983 503.878 8.19983 502.37 7.90605C501.151 7.67342 499.9 7.67342 498.681 7.90605C498.209 8.05185 497.775 8.30086 497.41 8.63506C497.045 8.96927 496.76 9.38032 496.573 9.83849C495.976 10.718 495.669 11.7622 495.695 12.825V22.6628H491.831V14.5817ZM502.194 32.1493C502.945 32.2262 503.703 32.1228 504.406 31.8478C505.108 31.5729 505.735 31.1342 506.234 30.5682C507.356 29.2516 507.923 27.5512 507.815 25.825V23.5412C507.914 21.8694 507.345 20.2267 506.234 18.9736C505.682 18.3851 504.989 17.9472 504.221 17.7013C503.453 17.4554 502.634 17.4096 501.843 17.5682C501.122 17.5321 500.403 17.655 499.735 17.9283C499.067 18.2015 498.467 18.6184 497.979 19.1493C497.452 19.7783 497.056 20.5065 496.814 21.291C496.573 22.0754 496.491 22.9003 496.573 23.7169V26.879C496.417 28.5817 496.92 30.2795 497.979 31.6223C498.483 32.1215 499.09 32.5057 499.757 32.7483C500.424 32.9908 501.136 33.0862 501.843 33.0277L502.194 32.1493ZM502.194 36.7169C500.245 36.8098 498.306 36.3855 496.573 35.4871C495.017 34.6341 493.738 33.3541 492.885 31.7979C492.242 30.1735 491.885 28.4497 491.831 26.7033V23.5412L495.344 18.4466C495.629 16.7475 496.576 15.231 497.979 14.2304C499.503 13.1163 501.363 12.5583 503.248 12.6493C505.048 12.6056 506.82 13.0945 508.342 14.0547C509.657 14.8653 510.651 16.1071 511.153 17.5682C512.05 19.3641 512.474 21.3598 512.382 23.3655V26.5277C512.403 28.5836 511.984 30.6202 511.153 32.5006C510.3 34.0568 509.02 35.3368 507.464 36.1898C505.813 37.1513 503.929 37.6377 502.019 37.5952L502.194 36.7169ZM464.78 12.1223H469.874L477.779 34.0817L474.968 39.352L464.78 12.1223ZM487.264 12.1223L476.549 43.2169C476.141 44.1615 475.61 45.0477 474.968 45.852C474.326 46.5333 473.548 47.072 472.685 47.4331H469.171H468.293V43.0412H469.171C469.917 43.2608 470.71 43.2608 471.455 43.0412C472.045 42.4951 472.523 41.8386 472.86 41.1087L482.17 12.1223H487.264ZM444.404 22.3115H453.538V27.0547H444.404V22.3115ZM449.674 26.7033L453.538 24.2439L463.726 37.4196H456.7L449.674 26.7033ZM441.945 12.1223H447.039V37.4196H441.945V12.1223ZM449.323 22.8385L456.7 12.1223H462.672L452.133 27.2304L449.323 22.8385ZM426.312 37.5952C424.655 37.8352 422.968 37.4602 421.569 36.5412C420.344 35.8326 419.41 34.712 418.934 33.379V28.1088C418.671 29.0272 418.671 30.0012 418.934 30.9196C419.311 31.6249 419.853 32.2279 420.515 32.6763C421.442 32.8758 422.4 32.8758 423.326 32.6763C424.02 32.7111 424.714 32.5867 425.353 32.3127C425.992 32.0387 426.561 31.6223 427.015 31.0952C427.997 29.9862 428.502 28.5341 428.42 27.0547V21.9601C429.001 20.5642 429.064 19.0061 428.595 17.5682C428.142 17.0412 427.573 16.6247 426.934 16.3507C426.295 16.0767 425.601 15.9524 424.907 15.9871C424.273 16.0141 423.651 16.1679 423.078 16.4395C422.505 16.711 421.992 17.0949 421.569 17.5682C420.884 17.909 420.329 18.4642 419.988 19.1493C419.725 20.0677 419.725 21.0417 419.988 21.9601V17.0412C420.176 15.5851 420.719 14.1976 421.569 13.0006C422.807 12.1508 424.284 11.7198 425.785 11.7709C427.396 11.7161 428.986 12.1443 430.352 13.0006C431.688 13.7877 432.688 15.038 433.162 16.5142C433.918 18.2273 434.278 20.0887 434.216 21.9601V27.5817C434.255 29.4513 433.896 31.3077 433.162 33.0277C432.521 34.4587 431.485 35.6774 430.176 36.5412C428.98 37.1688 427.661 37.5285 426.312 37.5952V37.5952ZM414.894 12.1223H419.813V47.2574H414.894V12.1223ZM398.559 37.5952C396.499 37.6647 394.451 37.2432 392.586 36.3655C391.024 35.4422 389.747 34.1046 388.898 32.5006C387.938 30.5951 387.456 28.4851 387.492 26.352V23.5412C387.551 21.4937 387.967 19.4723 388.722 17.5682C389.51 15.8761 390.797 14.466 392.411 13.5277C394.159 12.4914 396.178 12.0019 398.207 12.1223C400.089 12.0585 401.941 12.6139 403.477 13.7033C405.056 14.8631 406.274 16.4469 406.99 18.2709C407.749 20.5941 408.106 23.0302 408.044 25.4736V27.0547H390.479V22.6628H404.004C403.92 20.77 403.174 18.9668 401.896 17.5682C401.429 17.0446 400.862 16.6194 400.229 16.3178C399.595 16.0161 398.908 15.844 398.207 15.8115C397.376 15.7768 396.549 15.9329 395.787 16.2679C395.026 16.6029 394.352 17.1078 393.816 17.7439C392.672 19.1855 392.108 21.0025 392.235 22.8385V26.1763C392.15 27.0483 392.265 27.9281 392.569 28.7496C392.873 29.5712 393.36 30.3131 393.992 30.9196C394.598 31.5011 395.314 31.956 396.098 32.2576C396.882 32.5593 397.719 32.7016 398.559 32.6763C399.548 32.837 400.556 32.837 401.545 32.6763C402.506 32.236 403.349 31.5737 404.004 30.7439L407.341 33.906C406.123 35.097 404.693 36.0502 403.126 36.7169C401.68 37.3199 400.125 37.6189 398.559 37.5952V37.5952ZM363.428 12.1223H378.885V17.5682H363.428V12.1223ZM360.266 12.1223H365.184V37.4196H360.266V12.1223ZM376.251 12.1223H381.169V37.4196H376.251V12.1223ZM346.916 37.2439V19.6763L334.621 37.2439H330.405V12.1223H335.323V29.6898L347.443 12.1223H351.308V37.2439H346.916ZM311.786 2.10876H329.351V6.67632H311.786V2.10876ZM188.828 57.2709H284.384V74.8385H188.477L188.828 57.2709ZM177.235 1.23038H194.8V128.068H177.235V1.23038ZM274.723 1.23038H292.288V128.068H274.723V1.23038ZM80.0982 1.23038H97.6635V128.068H80.0982V1.23038ZM92.2183 111.203H120.85C128.794 111.674 136.608 109.027 142.631 103.825C145.271 101.127 147.309 97.9008 148.611 94.3579C149.913 90.815 150.449 87.0362 150.184 83.2709V46.0277C150.416 42.2654 149.865 38.4959 148.564 34.9578C147.264 31.4197 145.244 28.1902 142.631 25.4736C136.651 20.1458 128.855 17.3162 120.85 17.5682H92.2183V0.000647986H120.323C129.388 0.186902 138.286 2.47192 146.32 6.67632C153.267 10.0308 159.027 15.4236 162.831 22.1358C166.737 29.733 168.67 38.1905 168.452 46.7304V81.8655C168.67 90.4054 166.737 98.8629 162.831 106.46C159.303 113.638 153.497 119.445 146.32 122.974C138.149 126.835 129.179 128.702 120.147 128.42H92.2183V111.203ZM1.58088 112.609L45.67 53.7574C48.4504 50.5567 50.8114 47.0147 52.6962 43.2169C54.015 39.9777 54.7294 36.5243 54.804 33.0277V33.0277C54.925 30.8536 54.5802 28.6788 53.7925 26.6489C53.0049 24.6189 51.7926 22.7807 50.237 21.2574C48.3566 19.7467 46.1853 18.6395 43.8583 18.0048C41.5313 17.3701 39.0986 17.2215 36.7117 17.5682C32.117 17.3997 27.6395 19.0395 24.2402 22.1358C20.8717 25.6741 18.8246 30.265 18.4437 35.1358H0C0.688852 28.2882 2.91016 21.6834 6.49919 15.8115C9.56038 10.8687 13.8594 6.81132 18.9706 4.04119C24.4139 1.29622 30.4406 -0.0901089 36.536 0.000647986C43.1873 -0.203932 49.797 1.11818 55.8579 3.86551C60.9398 6.30421 65.165 10.2237 67.978 15.1088C70.8903 20.497 72.3436 26.5531 72.1937 32.6763C72.5112 37.5588 71.8544 42.4556 70.2615 47.0817C68.3128 52.1399 65.7147 56.9232 62.5328 61.3115L25.1185 111.203H73.072V128.771H1.58088V112.609ZM308.975 1.93308H313.893V37.0682H308.975V1.93308Z" fill="#3A474D"/>
</g>
<defs>
<clipPath id="clip0_1:3">
<rect width="544" height="130" fill="white"/>
</clipPath>
</defs>
</svg>
