<svg width="35" height="35" viewBox="0 0 35 35" fill="none" xmlns="http://www.w3.org/2000/svg">
<path d="M21.0752 34.7608C20.9043 34.7676 20.7949 34.7813 20.6855 34.7813C18.3477 34.7813 16.0166 34.7744 13.6787 34.7881C13.3506 34.7881 13.2617 34.6992 13.2617 34.3711C13.2686 28.9297 13.2686 23.4815 13.2686 18.0401C13.2686 17.8965 13.2686 17.7529 13.2686 17.5684C11.9971 17.5684 10.7598 17.5684 9.50195 17.5684C9.50195 15.627 9.50195 13.7197 9.50195 11.7578C9.63184 11.7578 9.75488 11.7578 9.87109 11.7578C10.8965 11.7578 11.9219 11.751 12.9473 11.7647C13.207 11.7647 13.2754 11.6895 13.2754 11.4365C13.2617 9.91213 13.2617 8.38088 13.2754 6.85646C13.2822 5.79006 13.4531 4.75099 13.9453 3.78713C14.6494 2.42678 15.7637 1.54494 17.1719 0.998064C18.3203 0.546892 19.5303 0.38283 20.7471 0.362322C22.7295 0.334978 24.7119 0.34865 26.6943 0.341814C26.8789 0.341814 27.0293 0.334978 27.0293 0.594744C27.0225 2.47463 27.0225 4.35451 27.0225 6.23439C27.0225 6.2549 27.0156 6.27541 26.9883 6.36427C26.8721 6.36427 26.7422 6.36427 26.6123 6.36427C25.3818 6.36427 24.1514 6.35744 22.9209 6.36427C22.21 6.36427 21.6357 6.65138 21.2734 7.27345C21.1641 7.45802 21.0957 7.69728 21.0957 7.91603C21.0752 9.07814 21.0957 10.2403 21.082 11.4024C21.082 11.6758 21.1641 11.751 21.4307 11.751C23.1396 11.7373 24.8486 11.7442 26.5576 11.7442C26.6943 11.7442 26.8242 11.7442 27.0566 11.7442C26.8174 13.6992 26.585 15.6133 26.3457 17.5479C24.5684 17.5479 22.8389 17.5479 21.0752 17.5479C21.0752 23.2969 21.0752 29.0117 21.0752 34.7608Z" fill="white"/>
</svg>
