<svg width="35" height="35" viewBox="0 0 35 35" fill="none" xmlns="http://www.w3.org/2000/svg">
<path fill-rule="evenodd" clip-rule="evenodd" d="M17.5099 0.00463985C19.9318 0.00463985 22.3538 -0.00657109 24.7756 0.00785274C27.054 0.0214563 29.1939 0.541056 31.048 1.92619C33.4693 3.73508 34.7084 6.20596 34.939 9.18749C35.0202 10.2368 34.9949 11.2952 34.9963 12.3495C35.0018 16.4381 34.9988 20.5266 34.9983 24.6152C34.9981 26.2851 34.7659 27.9155 34.0593 29.4425C32.6259 32.54 30.1255 34.2333 26.8266 34.8201C26.1387 34.9425 25.4291 34.9882 24.7294 34.9902C19.8987 35.0045 15.0678 35.0012 10.2371 34.9962C7.72506 34.9936 5.42757 34.3303 3.46972 32.7005C1.48057 31.0449 0.430911 28.8794 0.104392 26.3406C0.048064 25.9028 0.0135767 25.4586 0.0131666 25.0174C0.00844978 19.9393 -0.0222094 14.8608 0.0275562 9.78317C0.0547632 7.00895 0.978503 4.54924 3.04371 2.61108C4.75676 1.00354 6.83902 0.163575 9.15295 0.0813733C11.9353 -0.0174744 14.7239 0.0579602 17.5098 0.0579602C17.5099 0.0401525 17.5099 0.0223791 17.5099 0.00463985ZM17.4826 31.766C19.813 31.766 22.1433 31.7754 24.4735 31.7596C25.0829 31.7555 25.7012 31.7252 26.2992 31.617C28.5833 31.2041 30.3199 30.0584 31.2299 27.8344C31.6923 26.7045 31.8433 25.4922 31.863 24.3181C31.9395 19.7629 31.8964 15.2057 31.891 10.6493C31.8904 10.1556 31.8851 9.6565 31.8152 9.16944C31.502 6.98235 30.5539 5.18973 28.5411 4.09961C27.4176 3.49117 26.198 3.26145 24.9304 3.26104C20.0484 3.25961 15.1665 3.25817 10.2846 3.26402C9.84344 3.26456 9.39836 3.28897 8.96181 3.35032C6.47538 3.69943 4.64393 4.92484 3.72737 7.33567C3.35748 8.30853 3.23928 9.32794 3.23908 10.3629C3.23836 15.1277 3.23378 19.8923 3.24533 24.6571C3.24673 25.2401 3.29021 25.8314 3.39456 26.4042C3.85746 28.9456 5.27458 30.6924 7.79837 31.3948C8.6394 31.6288 9.53843 31.7321 10.4139 31.7497C12.7693 31.797 15.1263 31.7658 17.4826 31.766Z" fill="white"/>
<path fill-rule="evenodd" clip-rule="evenodd" d="M26.5201 17.4441C26.5179 22.4268 22.4525 26.4794 17.4686 26.4673C12.4828 26.4552 8.46757 22.4308 8.46466 17.4428C8.46176 12.4604 12.5211 8.40741 17.5087 8.41285C22.4533 8.41818 26.5223 12.4962 26.5201 17.4441ZM17.4958 23.2143C20.6748 23.2168 23.293 20.6004 23.2875 17.4269C23.282 14.2753 20.6704 11.6588 17.5173 11.646C14.343 11.6331 11.726 14.2414 11.7193 17.4249C11.7126 20.6129 14.3056 23.2118 17.4958 23.2143Z" fill="white"/>
<path fill-rule="evenodd" clip-rule="evenodd" d="M26.8547 10.2313C25.7262 10.2212 24.8365 9.31814 24.8402 8.18628C24.8437 7.04157 25.7557 6.14405 26.907 6.15191C28.0228 6.15963 28.932 7.0805 28.9286 8.19941C28.9252 9.33417 27.9991 10.2415 26.8547 10.2313Z" fill="white"/>
</svg>
