<svg width="30" height="30" viewBox="0 0 30 30" fill="none" xmlns="http://www.w3.org/2000/svg">
<path d="M15 9C13.8954 9 13 9.89544 13 11V28C13 29.1046 13.8954 30 15 30C16.1046 30 17 29.1046 17 28V11C17 9.89544 16.1046 9 15 9ZM16 28C16 28.5523 15.5523 29 15 29C14.4477 29 14 28.5523 14 28V11C14 10.4477 14.4477 10 15 10C15.5523 10 16 10.4477 16 11V28Z" fill="white"/>
<path d="M8.5 15C7.39544 15 6.5 15.8954 6.5 17V28C6.5 29.1046 7.39544 30 8.5 30C9.60456 30 10.5 29.1046 10.5 28V17C10.5 15.8954 9.60456 15 8.5 15ZM9.5 28C9.5 28.5523 9.05231 29 8.5 29C7.94769 29 7.5 28.5523 7.5 28V17C7.5 16.4477 7.94769 16 8.5 16C9.05231 16 9.5 16.4477 9.5 17V28Z" fill="white"/>
<path d="M2 22C0.895437 22 0 22.8954 0 24V28C0 29.1046 0.895437 30 2 30C3.10456 30 4 29.1046 4 28V24C4 22.8954 3.10456 22 2 22ZM3 28C3 28.5523 2.55231 29 2 29C1.44769 29 1 28.5523 1 28V24C1 23.4477 1.44769 23 2 23C2.55231 23 3 23.4477 3 24V28Z" fill="white"/>
<path d="M21.5 3C20.3954 3 19.5 3.89544 19.5 5V28C19.5 29.1046 20.3954 30 21.5 30C22.6046 30 23.5 29.1046 23.5 28V5C23.5 3.89544 22.6046 3 21.5 3ZM22.5 28C22.5 28.5523 22.0523 29 21.5 29C20.9477 29 20.5 28.5523 20.5 28V5C20.5 4.44769 20.9477 4 21.5 4C22.0523 4 22.5 4.44769 22.5 5V28Z" fill="white"/>
<path d="M28 0C26.8954 0 26 0.895437 26 2V28C26 29.1046 26.8954 30 28 30C29.1046 30 30 29.1046 30 28V2C30 0.895437 29.1046 0 28 0ZM29 28C29 28.5523 28.5523 29 28 29C27.4477 29 27 28.5523 27 28V2C27 1.44769 27.4477 1 28 1C28.5523 1 29 1.44769 29 2V28Z" fill="white"/>
</svg>
