<svg width="86" height="87" viewBox="0 0 86 87" fill="none" xmlns="http://www.w3.org/2000/svg">
<g clip-path="url(#clip0_53:5)">
<path d="M4.84484 0.361694C2.24184 0.361694 0.12442 2.47926 0.12442 5.08211C0.12442 7.68496 2.24096 9.80238 4.84484 9.80238C7.44871 9.80238 9.56525 7.68496 9.56525 5.08211C9.56525 2.47926 7.44769 0.361694 4.84484 0.361694Z" fill="#F17733"/>
<path d="M20.1222 0.361176C17.5194 0.361176 15.4018 2.47874 15.4018 5.08159C15.4018 7.68444 17.5194 9.80186 20.1222 9.80186C22.7252 9.80186 24.8431 7.68444 24.8431 5.08159C24.8431 2.47874 22.7261 0.361176 20.1222 0.361176Z" fill="#F17733"/>
<path d="M35.6469 9.80201C38.2494 9.80201 40.3674 7.68459 40.3674 5.08174C40.3674 2.47889 38.2511 0.361176 35.6469 0.361176C33.0428 0.361176 30.9265 2.47874 30.9265 5.08159C30.9265 7.68444 33.0444 9.80201 35.6469 9.80201Z" fill="#F17733"/>
<path d="M4.72129 24.9277C7.32414 24.9277 9.44215 22.8107 9.44215 20.2074C9.44215 17.604 7.32414 15.4866 4.72129 15.4866C2.11844 15.4866 0 17.6041 0 20.2074C0 22.8107 2.11844 24.9277 4.72129 24.9277Z" fill="#F17733"/>
<path d="M19.9988 24.9277C22.6013 24.9277 24.7193 22.8107 24.7193 20.2074C24.7193 17.604 22.603 15.4866 19.9988 15.4866C17.3951 15.4866 15.2784 17.604 15.2784 20.2074C15.2784 22.8107 17.396 24.9277 19.9988 24.9277Z" fill="#F17733"/>
<path d="M35.5249 24.9277C38.1283 24.9277 40.2453 22.8107 40.2453 20.2074C40.2453 17.604 38.1283 15.4866 35.5249 15.4866C32.9214 15.4866 30.8027 17.604 30.8027 20.2074C30.8027 22.8107 32.9207 24.9277 35.5249 24.9277Z" fill="#F17733"/>
<path d="M4.82932 30.5653C2.22646 30.5653 0.108021 32.6823 0.108021 35.2857C0.108021 37.8882 2.22646 40.006 4.82932 40.006C7.43217 40.006 9.54959 37.8892 9.54959 35.2857C9.54959 32.6823 7.43217 30.5653 4.82932 30.5653Z" fill="#F17733"/>
<path d="M20.1077 30.5653C17.5047 30.5653 15.3864 32.6823 15.3864 35.2857C15.3864 37.8882 17.504 40.006 20.1077 40.006C22.7101 40.006 24.828 37.8892 24.828 35.2857C24.828 32.6823 22.7101 30.5653 20.1077 30.5653Z" fill="#F17733"/>
<path d="M35.632 30.5653C33.0296 30.5653 30.9116 32.6823 30.9116 35.2857C30.9116 37.8882 33.0296 40.006 35.632 40.006C38.2355 40.006 40.3524 37.8892 40.3524 35.2857C40.3524 32.6823 38.2344 30.5653 35.632 30.5653Z" fill="#F17733"/>
</g>
<g clip-path="url(#clip1_53:5)">
<path d="M50.4775 0.361694C47.8745 0.361694 45.7571 2.47926 45.7571 5.08211C45.7571 7.68496 47.8736 9.80238 50.4775 9.80238C53.0814 9.80238 55.1979 7.68496 55.1979 5.08211C55.1979 2.47926 53.0803 0.361694 50.4775 0.361694Z" fill="#F17733"/>
<path d="M65.7549 0.361176C63.152 0.361176 61.0344 2.47874 61.0344 5.08159C61.0344 7.68444 63.152 9.80186 65.7549 9.80186C68.3579 9.80186 70.4757 7.68444 70.4757 5.08159C70.4757 2.47874 68.3587 0.361176 65.7549 0.361176Z" fill="#F17733"/>
<path d="M81.2796 9.80201C83.882 9.80201 86 7.68459 86 5.08174C86 2.47889 83.8837 0.361176 81.2796 0.361176C78.6754 0.361176 76.5592 2.47874 76.5592 5.08159C76.5592 7.68444 78.677 9.80201 81.2796 9.80201Z" fill="#F17733"/>
<path d="M50.3539 24.9277C52.9568 24.9277 55.0748 22.8107 55.0748 20.2074C55.0748 17.604 52.9568 15.4866 50.3539 15.4866C47.7511 15.4866 45.6327 17.6041 45.6327 20.2074C45.6327 22.8107 47.7511 24.9277 50.3539 24.9277Z" fill="#F17733"/>
<path d="M65.6315 24.9277C68.2339 24.9277 70.3519 22.8107 70.3519 20.2074C70.3519 17.604 68.2357 15.4866 65.6315 15.4866C63.0278 15.4866 60.9111 17.604 60.9111 20.2074C60.9111 22.8107 63.0286 24.9277 65.6315 24.9277Z" fill="#F17733"/>
<path d="M81.1575 24.9277C83.761 24.9277 85.878 22.8107 85.878 20.2074C85.878 17.604 83.761 15.4866 81.1575 15.4866C78.5541 15.4866 76.4354 17.604 76.4354 20.2074C76.4354 22.8107 78.5534 24.9277 81.1575 24.9277Z" fill="#F17733"/>
<path d="M50.462 30.5653C47.8591 30.5653 45.7407 32.6823 45.7407 35.2857C45.7407 37.8882 47.8591 40.006 50.462 40.006C53.0648 40.006 55.1822 37.8892 55.1822 35.2857C55.1822 32.6823 53.0648 30.5653 50.462 30.5653Z" fill="#F17733"/>
<path d="M65.7404 30.5653C63.1374 30.5653 61.0191 32.6823 61.0191 35.2857C61.0191 37.8882 63.1367 40.006 65.7404 40.006C68.3428 40.006 70.4607 37.8892 70.4607 35.2857C70.4607 32.6823 68.3428 30.5653 65.7404 30.5653Z" fill="#F17733"/>
<path d="M81.2647 30.5653C78.6623 30.5653 76.5443 32.6823 76.5443 35.2857C76.5443 37.8882 78.6623 40.006 81.2647 40.006C83.8681 40.006 85.9851 37.8892 85.9851 35.2857C85.9851 32.6823 83.8671 30.5653 81.2647 30.5653Z" fill="#F17733"/>
</g>
<g clip-path="url(#clip2_53:5)">
<path d="M4.84484 46.8719C2.24184 46.8719 0.12442 48.9895 0.12442 51.5923C0.12442 54.1952 2.24096 56.3126 4.84484 56.3126C7.44871 56.3126 9.56525 54.1952 9.56525 51.5923C9.56525 48.9895 7.44769 46.8719 4.84484 46.8719Z" fill="#F17733"/>
<path d="M20.1222 46.8714C17.5194 46.8714 15.4018 48.989 15.4018 51.5918C15.4018 54.1947 17.5194 56.3121 20.1222 56.3121C22.7252 56.3121 24.8431 54.1947 24.8431 51.5918C24.8431 48.989 22.7261 46.8714 20.1222 46.8714Z" fill="#F17733"/>
<path d="M35.6469 56.3122C38.2494 56.3122 40.3674 54.1948 40.3674 51.592C40.3674 48.9891 38.2511 46.8714 35.6469 46.8714C33.0428 46.8714 30.9265 48.989 30.9265 51.5918C30.9265 54.1947 33.0444 56.3122 35.6469 56.3122Z" fill="#F17733"/>
<path d="M4.72129 71.4379C7.32414 71.4379 9.44215 69.3209 9.44215 66.7176C9.44215 64.1142 7.32414 61.9968 4.72129 61.9968C2.11844 61.9968 0 64.1143 0 66.7176C0 69.3209 2.11844 71.4379 4.72129 71.4379Z" fill="#F17733"/>
<path d="M19.9988 71.4379C22.6013 71.4379 24.7193 69.3209 24.7193 66.7176C24.7193 64.1142 22.603 61.9968 19.9988 61.9968C17.3951 61.9968 15.2784 64.1142 15.2784 66.7176C15.2784 69.3209 17.396 71.4379 19.9988 71.4379Z" fill="#F17733"/>
<path d="M35.5249 71.4379C38.1283 71.4379 40.2453 69.3209 40.2453 66.7176C40.2453 64.1142 38.1283 61.9968 35.5249 61.9968C32.9214 61.9968 30.8027 64.1142 30.8027 66.7176C30.8027 69.3209 32.9207 71.4379 35.5249 71.4379Z" fill="#F17733"/>
<path d="M4.82932 77.0755C2.22646 77.0755 0.108021 79.1925 0.108021 81.796C0.108021 84.3984 2.22646 86.5162 4.82932 86.5162C7.43217 86.5162 9.54959 84.3994 9.54959 81.796C9.54959 79.1925 7.43217 77.0755 4.82932 77.0755Z" fill="#F17733"/>
<path d="M20.1077 77.0755C17.5047 77.0755 15.3864 79.1925 15.3864 81.796C15.3864 84.3984 17.504 86.5162 20.1077 86.5162C22.7101 86.5162 24.828 84.3994 24.828 81.796C24.828 79.1925 22.7101 77.0755 20.1077 77.0755Z" fill="#F17733"/>
<path d="M35.632 77.0755C33.0296 77.0755 30.9116 79.1925 30.9116 81.796C30.9116 84.3984 33.0296 86.5162 35.632 86.5162C38.2355 86.5162 40.3524 84.3994 40.3524 81.796C40.3524 79.1925 38.2344 77.0755 35.632 77.0755Z" fill="#F17733"/>
</g>
<g clip-path="url(#clip3_53:5)">
<path d="M50.4775 46.8719C47.8745 46.8719 45.7571 48.9895 45.7571 51.5923C45.7571 54.1952 47.8736 56.3126 50.4775 56.3126C53.0814 56.3126 55.1979 54.1952 55.1979 51.5923C55.1979 48.9895 53.0803 46.8719 50.4775 46.8719Z" fill="#F17733"/>
<path d="M65.7549 46.8714C63.152 46.8714 61.0344 48.989 61.0344 51.5918C61.0344 54.1947 63.152 56.3121 65.7549 56.3121C68.3579 56.3121 70.4757 54.1947 70.4757 51.5918C70.4757 48.989 68.3587 46.8714 65.7549 46.8714Z" fill="#F17733"/>
<path d="M81.2796 56.3122C83.882 56.3122 86 54.1948 86 51.592C86 48.9891 83.8837 46.8714 81.2796 46.8714C78.6754 46.8714 76.5592 48.989 76.5592 51.5918C76.5592 54.1947 78.677 56.3122 81.2796 56.3122Z" fill="#F17733"/>
<path d="M50.3539 71.4379C52.9568 71.4379 55.0748 69.3209 55.0748 66.7176C55.0748 64.1142 52.9568 61.9968 50.3539 61.9968C47.7511 61.9968 45.6327 64.1143 45.6327 66.7176C45.6327 69.3209 47.7511 71.4379 50.3539 71.4379Z" fill="#F17733"/>
<path d="M65.6315 71.4379C68.2339 71.4379 70.3519 69.3209 70.3519 66.7176C70.3519 64.1142 68.2357 61.9968 65.6315 61.9968C63.0278 61.9968 60.9111 64.1142 60.9111 66.7176C60.9111 69.3209 63.0286 71.4379 65.6315 71.4379Z" fill="#F17733"/>
<path d="M81.1575 71.4379C83.761 71.4379 85.878 69.3209 85.878 66.7176C85.878 64.1142 83.761 61.9968 81.1575 61.9968C78.5541 61.9968 76.4354 64.1142 76.4354 66.7176C76.4354 69.3209 78.5534 71.4379 81.1575 71.4379Z" fill="#F17733"/>
<path d="M50.462 77.0755C47.8591 77.0755 45.7407 79.1925 45.7407 81.796C45.7407 84.3984 47.8591 86.5162 50.462 86.5162C53.0648 86.5162 55.1822 84.3994 55.1822 81.796C55.1822 79.1925 53.0648 77.0755 50.462 77.0755Z" fill="#F17733"/>
<path d="M65.7404 77.0755C63.1374 77.0755 61.0191 79.1925 61.0191 81.796C61.0191 84.3984 63.1367 86.5162 65.7404 86.5162C68.3428 86.5162 70.4607 84.3994 70.4607 81.796C70.4607 79.1925 68.3428 77.0755 65.7404 77.0755Z" fill="#F17733"/>
<path d="M81.2647 77.0755C78.6623 77.0755 76.5443 79.1925 76.5443 81.796C76.5443 84.3984 78.6623 86.5162 81.2647 86.5162C83.8681 86.5162 85.9851 84.3994 85.9851 81.796C85.9851 79.1925 83.8671 77.0755 81.2647 77.0755Z" fill="#F17733"/>
</g>
<defs>
<clipPath id="clip0_53:5">
<rect width="40.3673" height="40.3673" fill="white"/>
</clipPath>
<clipPath id="clip1_53:5">
<rect width="40.3673" height="40.3673" fill="white" transform="translate(45.6327)"/>
</clipPath>
<clipPath id="clip2_53:5">
<rect width="40.3673" height="40.3673" fill="white" transform="translate(0 46.5102)"/>
</clipPath>
<clipPath id="clip3_53:5">
<rect width="40.3673" height="40.3673" fill="white" transform="translate(45.6327 46.5102)"/>
</clipPath>
</defs>
</svg>
