<svg width="30" height="30" viewBox="0 0 30 30" fill="none" xmlns="http://www.w3.org/2000/svg">
<path d="M28.1221 11.875C28.1221 9.08936 27.3977 0 18.0765 0C12.9346 0 9.24715 1.32814 7.11024 3.94752C5.54268 5.98201 4.86505 8.56424 5.23149 11.1063L2.23085 15.5338C2.00198 15.8729 1.87911 16.2725 1.87794 16.6817C1.87472 17.8208 2.79552 18.7468 3.93458 18.7501H5.48643C5.32079 20.2951 5.2152 23.6482 7.29956 24.3444C8.4862 24.6745 9.72997 24.7454 10.9464 24.5525L9.40395 29.1775C9.38274 29.2413 9.3719 29.308 9.3719 29.3752C9.37196 29.7203 9.65186 30.0001 9.99704 30H23.747C23.7863 30.0001 23.8255 29.9965 23.8641 29.9892C24.2033 29.9254 24.4265 29.5986 24.3626 29.2594L24.3333 29.1038C23.6652 25.4015 24.306 21.5821 26.1458 18.3006C27.4577 15.93 28.1221 13.7681 28.1221 11.875ZM23.0046 28.75H10.864L12.4634 23.9475C12.5009 23.8349 12.5055 23.7139 12.4767 23.5988C12.3931 23.2639 12.0539 23.0602 11.719 23.1438C11.6927 23.1488 9.36774 23.7163 7.69272 23.1569C6.4677 22.7481 6.57399 19.6613 6.81774 18.23C6.82366 18.1953 6.82665 18.1601 6.82665 18.1249C6.82659 17.7797 6.54669 17.5 6.20151 17.5001H3.93464C3.4871 17.5001 3.12387 17.1382 3.12212 16.6907C3.12182 16.5286 3.17063 16.3702 3.2621 16.2363L6.40647 11.6026C6.50092 11.4626 6.53514 11.2905 6.50145 11.1251C6.13307 8.86975 6.70325 6.56186 8.07956 4.7376C9.96581 2.4232 13.3264 1.2501 18.0764 1.2501C26.0152 1.2501 26.872 8.68072 26.872 11.8751C26.872 13.5538 26.2601 15.5126 25.052 17.6957C23.1731 21.0552 22.4535 24.9403 23.0046 28.75Z" fill="white"/>
<path d="M23.6654 10.213C23.4379 10.4726 23.4638 10.8675 23.7234 11.095C24.1346 11.446 24.3717 11.9594 24.3721 12.5C24.3721 13.5355 23.5327 14.375 22.4971 14.375C21.4616 14.375 20.6221 13.5355 20.6221 12.5C20.6226 11.9594 20.8597 11.446 21.2709 11.095C21.4062 10.9763 21.4839 10.8051 21.4839 10.6251C21.484 10.2799 21.2042 10.0001 20.859 10H18.1222V7.26314C18.1222 7.08314 18.0445 6.91188 17.9091 6.79322C17.6496 6.5657 17.2547 6.59166 17.0272 6.85123C16.6762 7.26244 16.1628 7.49951 15.6222 7.49998C14.5866 7.49998 13.7471 6.66051 13.7471 5.62498C13.7471 4.58945 14.5866 3.74998 15.6222 3.74998C16.1628 3.75045 16.6761 3.98752 17.0272 4.39873C17.1458 4.53408 17.3171 4.61172 17.4971 4.61178C17.8423 4.61184 18.1221 4.33205 18.1222 3.98688V0.625H16.8721V2.76625C16.4787 2.591 16.0528 2.50029 15.6222 2.5C13.8963 2.5 12.4972 3.8991 12.4972 5.62498C12.4972 7.35086 13.8963 8.74996 15.6222 8.74996C16.0529 8.74967 16.4787 8.65897 16.8721 8.48371V10.625C16.8721 10.9701 17.152 11.25 17.4971 11.25H19.6384C19.4631 11.6434 19.3724 12.0693 19.3721 12.5C19.3742 14.225 20.7721 15.6229 22.4971 15.6249C24.2222 15.6229 25.6201 14.225 25.6221 12.5C25.6218 12.0692 25.5311 11.6434 25.3559 11.25H27.4971V10H24.1353C23.9553 10 23.784 10.0776 23.6654 10.213Z" fill="white"/>
<path d="M20.9015 2.56873L20.3428 3.68746C21.2896 4.15744 23.7471 5.76619 23.7471 7.49998H24.9971C24.9972 4.64687 21.069 2.64935 20.9015 2.56873Z" fill="white"/>
<path d="M15.6222 13.7501C14.2414 13.7501 13.1221 14.8693 13.1221 16.2501H14.3721C14.3721 15.5597 14.9317 15.0001 15.6221 15.0001C16.3124 15.0001 16.8721 15.5597 16.8721 16.2501H18.1221C18.1221 14.8693 17.0029 13.7501 15.6222 13.7501Z" fill="white"/>
<path d="M17.4972 10H11.5365C11.7558 9.62014 11.8713 9.1893 11.8715 8.75066C11.8718 7.36996 10.7528 6.25035 9.37214 6.25V7.49998C10.0625 7.49998 10.6221 8.05961 10.6221 8.74996C10.6221 9.44031 10.0625 9.99994 9.37214 9.99994C9.02696 9.99994 8.74712 10.2798 8.74712 10.625C8.74712 10.9701 9.02696 11.25 9.37214 11.25H16.8721V16.25H18.1221V10.625C18.1221 10.2798 17.8423 10 17.4972 10Z" fill="white"/>
<path d="M18.1221 17.5002H16.8721V18.7502H18.1221V17.5002Z" fill="white"/>
<path d="M18.1221 19.9998H16.8721V21.2498H18.1221V19.9998Z" fill="white"/>
<path d="M10.6221 11.8752H9.37213V13.1252H10.6221V11.8752Z" fill="white"/>
<path d="M10.6221 14.3748H9.37213V15.6248H10.6221V14.3748Z" fill="white"/>
<path d="M21.8596 23.2493L20.6346 23.0049C20.2519 25.153 20.2519 27.3518 20.6346 29.4999L21.8596 29.255C21.5155 27.2679 21.5155 25.2364 21.8596 23.2493Z" fill="white"/>
<path d="M19.3534 25.1513L18.1409 24.8482C18.1134 24.9576 17.4797 27.5482 18.154 29.5726L19.3403 29.1776C18.7815 27.5019 19.3478 25.1745 19.3534 25.1513Z" fill="white"/>
</svg>
