<svg display="none" xmlns="http://www.w3.org/2000/svg">
    <symbol id="instagram" viewBox="0 0 35 35">
        <g>
            <path fill-rule="evenodd" clip-rule="evenodd" d="M17.5099 0.00463985C19.9318 0.00463985 22.3538 -0.00657109 24.7756 0.00785274C27.054 0.0214563 29.1939 0.541056 31.048 1.92619C33.4693 3.73508 34.7084 6.20596 34.939 9.18749C35.0202 10.2368 34.9949 11.2952 34.9963 12.3495C35.0018 16.4381 34.9988 20.5266 34.9983 24.6152C34.9981 26.2851 34.7659 27.9155 34.0593 29.4425C32.6259 32.54 30.1255 34.2333 26.8266 34.8201C26.1387 34.9425 25.4291 34.9882 24.7294 34.9902C19.8987 35.0045 15.0678 35.0012 10.2371 34.9962C7.72506 34.9936 5.42757 34.3303 3.46972 32.7005C1.48057 31.0449 0.430911 28.8794 0.104392 26.3406C0.048064 25.9028 0.0135767 25.4586 0.0131666 25.0174C0.00844978 19.9393 -0.0222094 14.8608 0.0275562 9.78317C0.0547632 7.00895 0.978503 4.54924 3.04371 2.61108C4.75676 1.00354 6.83902 0.163575 9.15295 0.0813733C11.9353 -0.0174744 14.7239 0.0579602 17.5098 0.0579602C17.5099 0.0401525 17.5099 0.0223791 17.5099 0.00463985ZM17.4826 31.766C19.813 31.766 22.1433 31.7754 24.4735 31.7596C25.0829 31.7555 25.7012 31.7252 26.2992 31.617C28.5833 31.2041 30.3199 30.0584 31.2299 27.8344C31.6923 26.7045 31.8433 25.4922 31.863 24.3181C31.9395 19.7629 31.8964 15.2057 31.891 10.6493C31.8904 10.1556 31.8851 9.6565 31.8152 9.16944C31.502 6.98235 30.5539 5.18973 28.5411 4.09961C27.4176 3.49117 26.198 3.26145 24.9304 3.26104C20.0484 3.25961 15.1665 3.25817 10.2846 3.26402C9.84344 3.26456 9.39836 3.28897 8.96181 3.35032C6.47538 3.69943 4.64393 4.92484 3.72737 7.33567C3.35748 8.30853 3.23928 9.32794 3.23908 10.3629C3.23836 15.1277 3.23378 19.8923 3.24533 24.6571C3.24673 25.2401 3.29021 25.8314 3.39456 26.4042C3.85746 28.9456 5.27458 30.6924 7.79837 31.3948C8.6394 31.6288 9.53843 31.7321 10.4139 31.7497C12.7693 31.797 15.1263 31.7658 17.4826 31.766Z"/>
            <path fill-rule="evenodd" clip-rule="evenodd" d="M26.5201 17.4441C26.5179 22.4268 22.4525 26.4794 17.4686 26.4673C12.4828 26.4552 8.46757 22.4308 8.46466 17.4428C8.46176 12.4604 12.5211 8.40741 17.5087 8.41285C22.4533 8.41818 26.5223 12.4962 26.5201 17.4441ZM17.4958 23.2143C20.6748 23.2168 23.293 20.6004 23.2875 17.4269C23.282 14.2753 20.6704 11.6588 17.5173 11.646C14.343 11.6331 11.726 14.2414 11.7193 17.4249C11.7126 20.6129 14.3056 23.2118 17.4958 23.2143Z"/>
            <path fill-rule="evenodd" clip-rule="evenodd" d="M26.8547 10.2313C25.7262 10.2212 24.8365 9.31814 24.8402 8.18628C24.8437 7.04157 25.7557 6.14405 26.907 6.15191C28.0228 6.15963 28.932 7.0805 28.9286 8.19941C28.9252 9.33417 27.9991 10.2415 26.8547 10.2313Z"/>
        </g>
    </symbol>

    <symbol id="facebook" viewBox="0 0 35 35">
        <g>
            <path d="M21.0752 34.7608C20.9043 34.7676 20.7949 34.7813 20.6855 34.7813C18.3477 34.7813 16.0166 34.7744 13.6787 34.7881C13.3506 34.7881 13.2617 34.6992 13.2617 34.3711C13.2686 28.9297 13.2686 23.4815 13.2686 18.0401C13.2686 17.8965 13.2686 17.7529 13.2686 17.5684C11.9971 17.5684 10.7598 17.5684 9.50195 17.5684C9.50195 15.627 9.50195 13.7197 9.50195 11.7578C9.63184 11.7578 9.75488 11.7578 9.87109 11.7578C10.8965 11.7578 11.9219 11.751 12.9473 11.7647C13.207 11.7647 13.2754 11.6895 13.2754 11.4365C13.2617 9.91213 13.2617 8.38088 13.2754 6.85646C13.2822 5.79006 13.4531 4.75099 13.9453 3.78713C14.6494 2.42678 15.7637 1.54494 17.1719 0.998064C18.3203 0.546892 19.5303 0.38283 20.7471 0.362322C22.7295 0.334978 24.7119 0.34865 26.6943 0.341814C26.8789 0.341814 27.0293 0.334978 27.0293 0.594744C27.0225 2.47463 27.0225 4.35451 27.0225 6.23439C27.0225 6.2549 27.0156 6.27541 26.9883 6.36427C26.8721 6.36427 26.7422 6.36427 26.6123 6.36427C25.3818 6.36427 24.1514 6.35744 22.9209 6.36427C22.21 6.36427 21.6357 6.65138 21.2734 7.27345C21.1641 7.45802 21.0957 7.69728 21.0957 7.91603C21.0752 9.07814 21.0957 10.2403 21.082 11.4024C21.082 11.6758 21.1641 11.751 21.4307 11.751C23.1396 11.7373 24.8486 11.7442 26.5576 11.7442C26.6943 11.7442 26.8242 11.7442 27.0566 11.7442C26.8174 13.6992 26.585 15.6133 26.3457 17.5479C24.5684 17.5479 22.8389 17.5479 21.0752 17.5479C21.0752 23.2969 21.0752 29.0117 21.0752 34.7608Z"/>
        </g>
    </symbol>

    <symbol id="telegram" viewBox="0 0 35 35">
        <g>
            <path d="M17.5 0.546875C8.13422 0.546875 0.546875 8.13531 0.546875 17.5C0.546875 26.8647 8.13531 34.4531 17.5 34.4531C26.8658 34.4531 34.4531 26.8647 34.4531 17.5C34.4531 8.13531 26.8647 0.546875 17.5 0.546875ZM25.8267 12.1614L23.0442 25.2733C22.8386 26.203 22.2852 26.4283 21.513 25.9908L17.2747 22.867L15.2305 24.8358C15.0052 25.0611 14.8138 25.2525 14.3763 25.2525L14.677 20.9387L22.5312 13.8425C22.8736 13.5417 22.4558 13.3711 22.0041 13.6719L12.297 19.7827L8.11344 18.4767C7.20453 18.1902 7.18375 17.5678 8.30484 17.1303L24.6498 10.827C25.4089 10.5536 26.0717 11.0119 25.8256 12.1603L25.8267 12.1614Z"/>
        </g>
    </symbol>

</svg>
