<svg width="30" height="30" viewBox="0 0 30 30" fill="none" xmlns="http://www.w3.org/2000/svg">
<path d="M29.1425 4.10131C28.7012 3.65922 27.9851 3.65846 27.5438 4.09944L13.9797 17.6277L9.08585 12.3125C8.66298 11.8534 7.94802 11.8237 7.48823 12.2465C7.0288 12.6694 6.99938 13.3847 7.42226 13.8441L13.1132 20.0246C13.3217 20.2512 13.6133 20.3827 13.9209 20.3891C13.9292 20.3894 13.9371 20.3894 13.945 20.3894C14.2439 20.3894 14.5314 20.2707 14.7433 20.0597L29.1403 5.7004C29.5827 5.25948 29.5835 4.5434 29.1425 4.10131Z" fill="white"/>
<path d="M28.8693 13.8693C28.2448 13.8693 27.7387 14.3754 27.7387 15C27.7387 22.0244 22.0244 27.7387 15 27.7387C7.97602 27.7387 2.26131 22.0244 2.26131 15C2.26131 7.97602 7.97602 2.26131 15 2.26131C15.6245 2.26131 16.1307 1.75518 16.1307 1.13068C16.1307 0.506133 15.6245 0 15 0C6.72891 0 0 6.72891 0 15C0 23.2707 6.72891 30 15 30C23.2707 30 30 23.2707 30 15C30 14.3755 29.4939 13.8693 28.8693 13.8693Z" fill="white"/>
</svg>
