<svg width="30" height="30" viewBox="0 0 30 30" fill="none" xmlns="http://www.w3.org/2000/svg">
<g clip-path="url(#clip0_15:168)">
<path d="M1.32624 28.6738C-0.441824 26.9057 -0.442175 24.0437 1.32624 22.2753L10.2284 13.373C11.3673 12.2343 11.9911 10.6966 11.985 9.04332C11.9762 6.63476 12.8986 4.37193 14.5823 2.67166C16.607 0.627087 19.4711 -0.32512 22.3207 0.0990398C23.4521 0.267497 23.9139 1.6499 23.1047 2.45902L18.0562 7.50758C17.7875 7.77629 17.7066 8.17719 17.8503 8.52898L18.7502 10.734C18.8452 10.9668 19.0332 11.1549 19.2661 11.2499L21.471 12.1498C21.8227 12.2934 22.2238 12.2125 22.4925 11.9438L24.038 10.3983C24.2096 10.2267 24.4878 10.2266 24.6595 10.3983C24.8311 10.5699 24.8311 10.8481 24.6595 11.0197L23.1139 12.5653C22.5944 13.0849 21.8191 13.2412 21.139 12.9635L18.934 12.0637C18.4838 11.8799 18.1202 11.5164 17.9365 11.0661L17.0365 8.86115C16.759 8.18093 16.9153 7.40568 17.4348 6.88625L22.4833 1.83769C22.781 1.53992 22.6127 1.03115 22.1913 0.968454C19.7002 0.59738 17.0936 1.38482 15.2068 3.29017C13.688 4.82392 12.856 6.86597 12.864 9.04021C12.8709 10.9295 12.1557 12.689 10.8501 13.9946L1.94775 22.8968C0.522981 24.3216 0.522922 26.6275 1.94775 28.0524C3.37234 29.4771 5.67847 29.4772 7.10323 28.0524L15.9954 19.1603C17.3038 17.8519 19.0619 17.139 20.9458 17.1465C23.1367 17.1587 25.1916 16.3119 26.7388 14.7646C28.6294 12.8741 29.3997 10.2785 29.0316 7.80793C28.969 7.38787 28.4607 7.21841 28.1625 7.51677L26.1094 9.56996C25.9377 9.74164 25.6595 9.74152 25.4879 9.56996C25.3163 9.39834 25.3163 9.12013 25.4879 8.94851L27.541 6.89533C28.3498 6.08662 29.7324 6.54734 29.9008 7.67843C30.3219 10.5044 29.3895 13.3569 27.3603 15.3861C25.6572 17.0892 23.396 18.0254 20.989 18.0255C20.9731 18.0255 20.9574 18.0255 20.9414 18.0254C19.2942 18.0182 17.7581 18.6407 16.6169 19.7818L7.72474 28.6738C5.95656 30.4419 3.09466 30.4423 1.32624 28.6738Z" fill="white"/>
<path d="M3.14836 26.8516C2.387 26.0903 2.387 24.8516 3.14831 24.0903C3.91137 23.3273 5.14653 23.3271 5.90971 24.0903C6.67278 24.8534 6.6729 26.0885 5.90965 26.8517H5.90971C5.90965 26.8517 5.90965 26.8517 5.90965 26.8517C5.14676 27.6147 3.91149 27.6148 3.14836 26.8516ZM3.76975 24.7118C3.35116 25.1304 3.35116 25.8116 3.76981 26.2302C4.18934 26.6497 4.86856 26.6499 5.28821 26.2302H5.28827C5.70786 25.8106 5.70791 25.1314 5.28827 24.7119C4.86856 24.2922 4.18952 24.2921 3.76975 24.7118Z" fill="white"/>
<path d="M6.81422 23.1858C6.05115 22.4228 6.05103 21.1876 6.81428 20.4245L7.21166 20.0271C7.38322 19.8555 7.66143 19.8555 7.83311 20.0271C8.00473 20.1987 8.00473 20.4769 7.83305 20.6485L7.43567 21.0459C7.01608 21.4655 7.01602 22.1446 7.43567 22.5643C7.85537 22.9839 8.53442 22.9839 8.95418 22.5643L14.6896 16.8288C15.1093 16.4092 15.1094 15.7301 14.6897 15.3103C14.27 14.8907 13.5909 14.8907 13.1712 15.3103L9.28688 19.1947C9.1152 19.3663 8.83705 19.3663 8.66537 19.1947C8.49375 19.023 8.49375 18.7448 8.66537 18.5732L12.5497 14.6889C13.3128 13.9259 14.548 13.9256 15.3111 14.6889C16.0742 15.4519 16.0743 16.6871 15.3111 17.4502L9.57563 23.1857C8.81256 23.9488 7.5774 23.9491 6.81422 23.1858Z" fill="white"/>
</g>
<defs>
<clipPath id="clip0_15:168">
<rect width="30" height="30" fill="white"/>
</clipPath>
</defs>
</svg>
